<?xml version="1.0" standalone="no"?>
<!DOCTYPE svg PUBLIC "-//W3C//DTD SVG 20010904//EN"
 "http://www.w3.org/TR/2001/REC-SVG-20010904/DTD/svg10.dtd">
<svg version="1.0" xmlns="http://www.w3.org/2000/svg"
 width="500.000000pt" height="500.000000pt" viewBox="0 0 500.000000 500.000000"
 preserveAspectRatio="xMidYMid meet">
<metadata>
Created by potrace 1.11, written by Peter Selinger 2001-2013
</metadata>
<g transform="translate(0.000000,500.000000) scale(0.100000,-0.100000)"
fill="#000000" stroke="none">
<path d="M0 2500 l0 -2500 2500 0 2500 0 0 2500 0 2500 -2500 0 -2500 0 0
-2500z m3550 1642 c0 -67 -34 -192 -70 -261 -89 -166 -249 -295 -427 -342 -67
-18 -121 -22 -393 -29 -301 -7 -319 -8 -403 -34 -377 -113 -659 -437 -716
-823 -7 -45 -11 -287 -11 -642 0 -584 -2 -615 -42 -738 -39 -124 -161 -276
-286 -359 -98 -66 -245 -113 -350 -114 l-43 0 4 968 c3 947 4 969 25 1066 70
322 204 573 432 809 259 269 533 429 860 503 173 39 221 41 833 43 l587 1 0
-48z m486 -195 c147 -75 206 -250 134 -395 -56 -111 -144 -166 -270 -166 -122
-1 -213 55 -272 167 -33 61 -33 193 1 257 41 79 105 133 191 161 49 16 162 4
216 -24z m-570 -761 l34 -34 0 -875 0 -876 308 -3 c274 -3 310 -5 333 -21 45
-30 49 -53 49 -288 l0 -221 -34 -34 -34 -34 -574 0 c-629 0 -601 -3 -633 60
-13 25 -15 146 -15 894 l0 865 -306 3 -306 3 -34 37 -34 38 0 226 0 226 34 34
34 34 572 0 572 0 34 -34z"/>
</g>
</svg>
